<svg width="14" height="14" viewBox="0 0 14 14" fill="none" xmlns="http://www.w3.org/2000/svg">
<path d="M2.33334 4.66675H11.6667M2.33334 4.66675V9.8002C2.33334 10.4536 2.33334 10.7801 2.4605 11.0297C2.57235 11.2492 2.7507 11.4279 2.97023 11.5397C3.21954 11.6667 3.54609 11.6667 4.19821 11.6667H9.80181C10.4539 11.6667 10.78 11.6667 11.0293 11.5397C11.2488 11.4279 11.4278 11.2492 11.5396 11.0297C11.6667 10.7804 11.6667 10.4543 11.6667 9.80217V4.66675M2.33334 4.66675V4.2002C2.33334 3.5468 2.33334 3.21986 2.4605 2.9703C2.57235 2.75077 2.7507 2.57243 2.97023 2.46057C3.21979 2.33341 3.54673 2.33341 4.20012 2.33341H4.66668M11.6667 4.66675V4.19828C11.6667 3.54616 11.6667 3.21962 11.5396 2.9703C11.4278 2.75077 11.2488 2.57243 11.0293 2.46057C10.7798 2.33341 10.4535 2.33341 9.80012 2.33341H9.33334M9.33334 1.16675V2.33341M9.33334 2.33341H4.66668M4.66668 1.16675V2.33341" stroke="#666666" stroke-width="2" stroke-linecap="round" stroke-linejoin="round"/>
</svg>
